<svg data-v-423bf9ae="" xmlns="http://www.w3.org/2000/svg" viewBox="0 0 245.88235679107288 163" class="iconAbove"><!----><!----><!----><g data-v-423bf9ae="" id="d2ec5cbf-b0ff-49d7-89bd-aeaa6f89aad3" fill="black" transform="matrix(4.901960875977926,0,0,4.901960875977926,-2.2549040547040136,84.27450715840115)"><path d="M0.62 7.38L0.62 7.38Q0.62 6.23 1.36 5.59L1.36 5.59L1.36 5.59Q2.10 4.94 3.46 4.94L3.46 4.94L3.46 4.94Q4.66 4.94 5.78 5.32L5.78 5.32L5.64 7.20L5.05 7.20L4.75 5.87L4.75 5.87Q4.55 5.81 4.19 5.77L4.19 5.77L4.19 5.77Q3.84 5.73 3.57 5.73L3.57 5.73L3.57 5.73Q2.79 5.73 2.32 6.06L2.32 6.06L2.32 6.06Q1.86 6.40 1.86 7.07L1.86 7.07L1.86 7.07Q1.86 7.62 2.18 7.96L2.18 7.96L2.18 7.96Q2.49 8.30 3.14 8.55L3.14 8.55L4.56 9.14L4.56 9.14Q5.35 9.45 5.71 9.98L5.71 9.98L5.71 9.98Q6.08 10.51 6.08 11.37L6.08 11.37L6.08 11.37Q6.08 12.54 5.27 13.20L5.27 13.20L5.27 13.20Q4.47 13.86 2.93 13.86L2.93 13.86L2.93 13.86Q2.34 13.86 1.67 13.75L1.67 13.75L1.67 13.75Q0.99 13.64 0.46 13.43L0.46 13.43L0.66 11.68L1.26 11.68L1.51 12.88L1.51 12.88Q2.23 13.08 2.97 13.08L2.97 13.08L2.97 13.08Q3.79 13.08 4.28 12.72L4.28 12.72L4.28 12.72Q4.76 12.36 4.76 11.75L4.76 11.75L4.76 11.75Q4.76 11.20 4.48 10.84L4.48 10.84L4.48 10.84Q4.20 10.47 3.54 10.21L3.54 10.21L2.07 9.62L2.07 9.62Q1.41 9.37 1.02 8.82L1.02 8.82L1.02 8.82Q0.62 8.27 0.62 7.38L0.62 7.38ZM10.22 13.87L10.22 13.87Q8.57 13.87 7.78 12.94L7.78 12.94L7.78 12.94Q7 12.01 7 10.32L7 10.32L7 10.32Q7 8.51 7.80 7.61L7.80 7.61L7.80 7.61Q8.61 6.71 10.07 6.71L10.07 6.71L10.07 6.71Q11.45 6.71 12.10 7.35L12.10 7.35L12.10 7.35Q12.75 7.99 12.75 9.37L12.75 9.37L12.75 9.37Q12.75 9.73 12.71 10.14L12.71 10.14L8.51 10.14L8.51 10.54L8.51 10.54Q8.51 11.77 9.04 12.40L9.04 12.40L9.04 12.40Q9.56 13.03 10.53 13.03L10.53 13.03L10.53 13.03Q11.42 13.03 12.57 12.71L12.57 12.71L12.67 13.20L12.67 13.20Q12.11 13.55 11.54 13.71L11.54 13.71L11.54 13.71Q10.96 13.87 10.22 13.87L10.22 13.87ZM8.54 9.56L11.30 9.41L11.30 9.10L11.30 9.10Q11.30 8.29 11.03 7.89L11.03 7.89L11.03 7.89Q10.77 7.49 10.15 7.49L10.15 7.49L10.15 7.49Q9.31 7.49 8.95 7.97L8.95 7.97L8.95 7.97Q8.60 8.46 8.54 9.56L8.54 9.56ZM17.46 7.70L17.46 7.70Q16.74 7.70 16.13 7.95L16.13 7.95L16.13 12.91L17.72 13.22L17.72 13.72L13.54 13.72L13.54 13.23L14.74 12.89L14.74 7.83L13.54 7.67L13.54 7.24L15.57 6.71L16.10 6.71L16.10 7.35L16.10 7.35Q16.58 7.04 17.16 6.86L17.16 6.86L17.16 6.86Q17.74 6.68 18.24 6.68L18.24 6.68L18.24 6.68Q18.51 6.68 18.62 6.69L18.62 6.69L18.38 8.86L17.75 8.86L17.46 7.70ZM22.55 13.87L22.55 13.87Q20.90 13.87 20.12 12.94L20.12 12.94L20.12 12.94Q19.33 12.01 19.33 10.32L19.33 10.32L19.33 10.32Q19.33 8.51 20.14 7.61L20.14 7.61L20.14 7.61Q20.94 6.71 22.40 6.71L22.40 6.71L22.40 6.71Q23.79 6.71 24.44 7.35L24.44 7.35L24.44 7.35Q25.09 7.99 25.09 9.37L25.09 9.37L25.09 9.37Q25.09 9.73 25.05 10.14L25.05 10.14L20.85 10.14L20.85 10.54L20.85 10.54Q20.85 11.77 21.37 12.40L21.37 12.40L21.37 12.40Q21.90 13.03 22.86 13.03L22.86 13.03L22.86 13.03Q23.76 13.03 24.91 12.71L24.91 12.71L25.00 13.20L25.00 13.20Q24.44 13.55 23.87 13.71L23.87 13.71L23.87 13.71Q23.30 13.87 22.55 13.87L22.55 13.87ZM20.87 9.56L23.63 9.41L23.63 9.10L23.63 9.10Q23.63 8.29 23.37 7.89L23.37 7.89L23.37 7.89Q23.10 7.49 22.48 7.49L22.48 7.49L22.48 7.49Q21.64 7.49 21.29 7.97L21.29 7.97L21.29 7.97Q20.93 8.46 20.87 9.56L20.87 9.56ZM28.49 7.27L28.49 7.27Q28.97 7.07 29.67 6.89L29.67 6.89L29.67 6.89Q30.37 6.71 30.98 6.71L30.98 6.71L30.98 6.71Q31.78 6.71 32.29 7.06L32.29 7.06L32.29 7.06Q32.80 7.42 32.80 8.22L32.80 8.22L32.80 12.91L34.02 13.26L34.02 13.72L30.37 13.72L30.37 13.26L31.42 12.91L31.42 8.53L31.42 8.53Q31.42 8.16 31.31 7.97L31.31 7.97L31.31 7.97Q31.21 7.78 30.94 7.71L30.94 7.71L30.94 7.71Q30.67 7.64 30.16 7.64L30.16 7.64L30.16 7.64Q29.23 7.64 28.49 7.85L28.49 7.85L28.49 12.91L29.54 13.26L29.54 13.72L25.90 13.72L25.90 13.26L27.10 12.91L27.10 7.81L25.90 7.67L25.90 7.22L28.04 6.71L28.49 6.71L28.49 7.27ZM36.54 5.66L36.54 5.66Q36.15 5.66 35.87 5.40L35.87 5.40L35.87 5.40Q35.59 5.14 35.59 4.76L35.59 4.76L35.59 4.76Q35.59 4.38 35.87 4.10L35.87 4.10L35.87 4.10Q36.16 3.82 36.54 3.82L36.54 3.82L36.54 3.82Q36.90 3.82 37.19 4.10L37.19 4.10L37.19 4.10Q37.48 4.38 37.48 4.76L37.48 4.76L37.48 4.76Q37.48 5.14 37.20 5.40L37.20 5.40L37.20 5.40Q36.92 5.66 36.54 5.66L36.54 5.66ZM38.44 13.72L34.65 13.72L34.65 13.19L35.85 12.91L35.85 7.81L34.65 7.67L34.65 7.24L36.81 6.71L37.24 6.71L37.24 12.91L38.44 13.19L38.44 13.72ZM43.26 13.55L43.26 13.55Q42.85 13.66 42.17 13.76L42.17 13.76L42.17 13.76Q41.50 13.85 41.13 13.85L41.13 13.85L41.13 13.85Q40.00 13.85 40.00 12.71L40.00 12.71L40.00 7.64L38.98 7.64L38.98 7.10L40.12 6.69L40.74 5.29L41.37 5.29L41.37 6.85L43.46 6.85L43.46 7.76L41.37 7.64L41.37 12.80L43.26 13.08L43.26 13.55ZM46.61 6.85L46.61 7.29L45.86 7.62L47.42 11.79L48.80 7.63L47.81 7.36L47.81 6.85L50.62 6.85L50.62 7.35L49.73 7.63L47.73 13.24L47.73 13.24Q47.21 14.67 46.64 15.37L46.64 15.37L46.64 15.37Q46.07 16.06 45.22 16.06L45.22 16.06L45.22 16.06Q44.60 16.06 43.95 15.71L43.95 15.71L44.04 15.20L44.73 15.20L44.73 15.20Q45.46 15.20 45.88 14.79L45.88 14.79L45.88 14.79Q46.31 14.38 46.72 13.41L46.72 13.41L44.37 7.62L43.58 7.29L43.58 6.85L46.61 6.85Z"></path></g><!----><g data-v-423bf9ae="" id="24bc2054-4f6f-4927-aa73-6056e71aff33" transform="matrix(1.4999995231629935,0,0,1.4999995231629935,78.02501659281023,0)" stroke="none" fill="black"><g fill-rule="evenodd"><path d="M5 6a1 1 0 1 0 0-2 1 1 0 0 0 0 2M8 55a1 1 0 1 0 0 2 1 1 0 0 0 0-2M3 48a1 1 0 1 0 0 2 1 1 0 0 0 0-2M14 3a1 1 0 1 0 0-2 1 1 0 0 0 0 2M54 6a1 1 0 1 0 0-2 1 1 0 0 0 0 2M42.618 30a1 1 0 0 1 1-1h16.357a29.828 29.828 0 0 0-1.695-9H32.263a1 1 0 1 1 0-2h25.224a29.825 29.825 0 0 0-2.129-4H43a1 1 0 0 1 0-2h10.984C48.505 4.718 39.794 0 30 0 17.723 0 7.151 7.416 2.513 18h23.148a1 1 0 0 1 0 2H1.72a29.828 29.828 0 0 0-1.695 9h9.712a1 1 0 1 1 0 2H.025a29.8 29.8 0 0 0 2.073 10h21.845a1 1 0 0 1 0 2H2.966a30.162 30.162 0 0 0 6.666 9h24.174a1 1 0 0 1 0 2H12.021A29.84 29.84 0 0 0 30 60a29.84 29.84 0 0 0 17.979-6h-7.776a1 1 0 0 1 0-2h10.165a30.162 30.162 0 0 0 6.666-9h-26.86a1 1 0 0 1 0-2h27.728a29.8 29.8 0 0 0 2.073-10H43.618a1 1 0 0 1-1-1zM34.567 6H42.9a1 1 0 1 1 0 2h-8.333a1 1 0 0 1 0-2zM16.206 7a1 1 0 0 1 1-1h10.417a1 1 0 0 1 0 2H17.206a1 1 0 0 1-1-1zM24 14a1 1 0 0 1 0-2h10a1 1 0 0 1 0 2H24zm1 9h10a1 1 0 0 1 0 2H25a1 1 0 0 1 0-2zM6 25a1 1 0 0 1 0-2h10a1 1 0 0 1 0 2H6zm9.349 5a1 1 0 0 1 1-1h20.277a1 1 0 0 1 0 2H16.349a1 1 0 0 1-1-1zm21.928 16a1 1 0 0 1 0 2H17a1 1 0 0 1 0-2h20.277zM44 36a1 1 0 0 1-1 1H22.723a1 1 0 0 1 0-2H43a1 1 0 0 1 1 1z"></path></g></g><!----></svg>